<svg height="496pt" viewBox="0 0 496 496" width="496pt" xmlns="http://www.w3.org/2000/svg"><path d="m32 96h80c17.648438 0 32-14.351562 32-32 0-17.910156-15.105469-32.535156-32.800781-31.992188-3.710938-18.238281-19.878907-32.007812-39.199219-32.007812s-35.488281 13.769531-39.199219 32.007812c-17.746093-.34375-32.800781 14.082032-32.800781 31.992188 0 17.648438 14.351562 32 32 32zm0-48c1.726562 0 3.503906.335938 5.425781 1.03125l11.261719 4.089844-.542969-11.96875-.144531-1.152344c0-13.230469 10.769531-24 24-24s24 10.769531 24 23.710938l-.6875 13.410156 11.261719-4.089844c1.921875-.695312 3.699219-1.03125 5.425781-1.03125 8.824219 0 16 7.175781 16 16s-7.175781 16-16 16h-80c-8.824219 0-16-7.175781-16-16s7.175781-16 16-16zm0 0"/><path d="m384 120h80c17.648438 0 32-14.351562 32-32 0-17.910156-14.960938-32.574219-32.800781-31.992188-3.710938-18.238281-19.878907-32.007812-39.199219-32.007812s-35.488281 13.769531-39.199219 32.007812c-17.863281-.375-32.800781 14.082032-32.800781 31.992188 0 17.648438 14.351562 32 32 32zm0-48c1.726562 0 3.503906.335938 5.425781 1.03125l11.261719 4.089844-.542969-11.976563-.144531-1.144531c0-13.230469 10.769531-24 24-24s24 10.769531 24 23.710938l-.6875 13.410156 11.261719-4.089844c1.921875-.695312 3.699219-1.03125 5.425781-1.03125 8.824219 0 16 7.175781 16 16s-7.175781 16-16 16h-80c-8.824219 0-16-7.175781-16-16s7.175781-16 16-16zm0 0"/><path d="m39.984375 408c12.574219 0 19.28125-4.832031 24.664063-8.703125 4.582031-3.304687 7.902343-5.6875 15.320312-5.6875 7.40625 0 10.71875 2.382813 15.3125 5.6875 5.382812 3.871094 12.078125 8.703125 24.65625 8.703125 12.574219 0 19.285156-4.832031 24.671875-8.703125 4.589844-3.304687 7.910156-5.6875 15.335937-5.6875 7.421876 0 10.742188 2.382813 15.335938 5.6875 5.390625 3.871094 12.101562 8.703125 24.6875 8.703125 12.582031 0 19.296875-4.832031 24.6875-8.703125 4.589844-3.304687 7.910156-5.695313 15.34375-5.695313v-16c-12.585938 0-19.296875 4.832032-24.6875 8.703126-4.59375 3.3125-7.914062 5.695312-15.34375 5.695312-7.433594 0-10.753906-2.382812-15.34375-5.695312-5.394531-3.871094-12.097656-8.703126-24.679688-8.703126-12.585937 0-19.289062 4.832032-24.679687 8.703126-4.59375 3.3125-7.914063 5.695312-15.328125 5.695312-7.410156 0-10.722656-2.382812-15.3125-5.6875-5.386719-3.878906-12.089844-8.703125-24.664062-8.703125-12.578126 0-19.289063 4.832031-24.671876 8.703125-4.578124 3.304688-7.898437 5.6875-15.304687 5.6875-7.410156 0-10.726563-2.382812-15.320313-5.6875-5.382812-3.878906-12.089843-8.710938-24.664062-8.710938v16c7.414062 0 10.726562 2.382813 15.3125 5.6875 5.382812 3.878907 12.085938 8.710938 24.671875 8.710938zm0 0"/><path d="m455.96875 422.398438c-7.433594 0-10.753906-2.382813-15.34375-5.695313-5.394531-3.871094-12.097656-8.703125-24.679688-8.703125-12.585937 0-19.289062 4.832031-24.679687 8.703125-4.59375 3.304687-7.90625 5.6875-15.328125 5.6875-7.410156 0-10.722656-2.382813-15.3125-5.6875-5.378906-3.871094-12.082031-8.703125-24.65625-8.703125-12.578125 0-19.289062 4.832031-24.671875 8.703125-4.585937 3.304687-7.90625 5.6875-15.320313 5.6875-7.417968 0-10.730468-2.382813-15.320312-5.6875-5.375-3.871094-12.082031-8.703125-24.65625-8.703125v16c7.414062 0 10.726562 2.382812 15.3125 5.6875 5.382812 3.878906 12.085938 8.703125 24.664062 8.703125 12.574219 0 19.28125-4.832031 24.664063-8.703125 4.589844-3.304688 7.910156-5.6875 15.328125-5.6875 7.40625 0 10.71875 2.382812 15.3125 5.6875 5.382812 3.878906 12.085938 8.703125 24.664062 8.703125 12.574219 0 19.285157-4.832031 24.671876-8.703125 4.582031-3.304688 7.902343-5.6875 15.328124-5.6875 7.421876 0 10.742188 2.382812 15.335938 5.6875 5.390625 3.878906 12.101562 8.703125 24.6875 8.703125 12.582031 0 19.296875-4.832031 24.6875-8.703125 4.589844-3.304688 7.910156-5.6875 15.34375-5.6875v-16c-12.585938 0-19.296875 4.832031-24.6875 8.703125-4.59375 3.304687-7.914062 5.695313-15.34375 5.695313zm0 0"/><path d="m462.992188 473.753906c-4.542969 3.621094-7.824219 6.246094-15.023438 6.246094s-10.480469-2.625-15.015625-6.246094c-5.441406-4.347656-12.199219-9.753906-25.007813-9.753906-12.808593 0-19.570312 5.40625-25 9.753906-4.707031 3.757813-7.808593 6.246094-15.007812 6.246094-7.183594 0-10.289062-2.488281-14.984375-6.246094-5.433594-4.347656-12.183594-9.753906-24.984375-9.753906-12.808594 0-19.5625 5.40625-25 9.753906-4.695312 3.757813-7.800781 6.246094-14.984375 6.246094s-10.296875-2.488281-14.992187-6.246094c-5.425782-4.347656-12.175782-9.746094-24.960938-9.753906-.007812 0-.023438 0-.03125 0-12.792969.007812-19.550781 5.40625-24.984375 9.753906-4.535156 3.621094-7.816406 6.246094-15.015625 6.246094s-10.480469-2.625-15.015625-6.246094c-5.441406-4.347656-12.199219-9.753906-25.015625-9.753906-12.808594 0-19.570312 5.40625-25 9.753906-4.695312 3.757813-7.800781 6.246094-15 6.246094-7.183594 0-10.289062-2.488281-14.984375-6.246094-5.433594-4.347656-12.183594-9.753906-24.984375-9.753906-12.808594 0-19.558594 5.40625-25 9.753906-4.695312 3.757813-7.800781 6.246094-14.992188 6.246094-7.183593 0-10.289062-2.488281-14.992187-6.246094-5.421875-4.347656-12.183594-9.753906-24.984375-9.753906h-8.03125v16h8.03125c7.183594 0 10.289062 2.488281 14.992188 6.246094 5.425781 4.347656 12.183593 9.753906 24.984374 9.753906 12.808594 0 19.558594-5.40625 25-9.753906 4.695313-3.757813 7.800782-6.246094 14.992188-6.246094 7.183594 0 10.289062 2.488281 14.984375 6.246094 5.429687 4.347656 12.183594 9.753906 24.984375 9.753906 12.808594 0 19.566406-5.40625 25-9.753906 4.695312-3.757813 7.808594-6.246094 15-6.246094 7.199219 0 10.480469 2.625 15.015625 6.246094 5.441406 4.347656 12.199219 9.753906 25.015625 9.753906s19.574219-5.40625 25.007812-9.753906c4.535157-3.621094 7.816407-6.246094 15.007813-6.246094 7.175781 0 10.28125 2.488281 14.976563 6.246094 5.421874 4.347656 12.183593 9.753906 24.992187 9.753906 12.800781 0 19.558594-5.40625 24.992187-9.753906 4.695313-3.757813 7.800782-6.246094 14.992188-6.246094 7.183594 0 10.289062 2.488281 14.984375 6.246094 5.429687 4.347656 12.183594 9.753906 24.984375 9.753906 12.804688 0 19.566406-5.40625 25-9.753906 4.703125-3.757813 7.804688-6.246094 15.007812-6.246094 7.199219 0 10.3125 2.488281 15.015626 6.246094 5.429687 4.347656 12.199218 9.753906 25.007812 9.753906s19.574219-5.40625 25.007812-9.753906c4.542969-3.621094 7.824219-6.246094 15.023438-6.246094h8v-16h-8c-12.816406 0-19.574219 5.40625-25.007812 9.753906zm0 0"/><path d="m407.390625 166.015625c-12.144531-18.800781-32.742187-30.015625-55.117187-30.015625-22.921876 0-44.480469 12.207031-56.273438 31.855469l-29.359375 48.929687-52.632813-96.496094c-10.863281-19.921874-31.703124-32.289062-54.390624-32.289062-22.640626 0-43.464844 12.335938-54.34375 32.191406l-68.121094 124.351563-37.152344-28.894531v136.351562h496v-136.351562l-37.640625 29.273437zm-97.671875 10.082031c8.921875-14.867187 25.226562-24.097656 42.554688-24.097656 16.917968 0 32.496093 8.488281 41.679687 22.695312l30.085937 46.578126v18.726562c0 4.40625-3.589843 8-8 8-4.40625 0-8-3.59375-8-8v-16c0-13.230469-10.765624-24-24-24-13.230468 0-24 10.769531-24 24v48c0 4.40625-3.589843 8-8 8-4.40625 0-8-3.59375-8-8v-40.671875c0-12.855469-10.464843-23.328125-23.328124-23.328125-8.152344 0-15.808594 4.335938-20 11.328125l-15.070313 25.121094c-1.304687 2.191406-3.710937 3.550781-6.265625 3.550781l-12.789062-.015625zm-190.414062-48.21875c8.070312-14.726562 23.519531-23.878906 40.3125-23.878906 16.832031 0 32.285156 9.175781 40.34375 23.953125l35.808593 65.648437c-3.824219-2.714843-7.136719-6.167968-9.617187-10.296874l-8.671875-14.464844c-3.273438-5.449219-9.257813-8.839844-15.617188-8.839844-10.039062 0-18.214843 8.167969-18.214843 18.214844v37.785156c0 4.40625-3.59375 8-8 8-4.410157 0-8-3.59375-8-8v-58.816406c0-11.679688-9.503907-21.183594-21.183594-21.183594-10.066406 0-18.800782 7.167969-20.777344 17.03125l-4.207031 21.039062c-.425781 2.121094-3.921875 2.355469-4.609375.289063l-.566406-1.710937c-2.242188-6.726563-6.847657-12.351563-12.738282-16.03125zm-103.304688 208.121094v-87.648438l112.679688 87.648438zm33.945312-81.511719 45.878907-83.753906c2.40625 1.730469 4.335937 4.097656 5.296875 6.976563l.566406 1.714843c2.503906 7.519531 9.511719 12.566407 17.441406 12.566407 8.726563 0 16.320313-6.214844 18.03125-14.785157l4.207032-21.046875c.488281-2.40625 2.632812-4.160156 5.097656-4.160156 2.855468 0 5.183594 2.328125 5.183594 5.183594v58.816406c0 13.230469 10.765624 24 24 24 13.230468 0 24-10.769531 24-24v-37.785156c0-1.992188 3.085937-2.839844 4.121093-1.136719l8.671875 14.464844c7.679688 12.800781 20.589844 21.402343 35.160156 23.753906l9.496094 17.40625-61.976562 103.296875h-40.378906zm163.832032 81.511719 43.214844-72.023438 22.375.023438c8.152343 0 15.808593-4.335938 20-11.328125l15.074218-25.121094c1.3125-2.191406 3.71875-3.550781 6.277344-3.550781 4.042969 0 7.328125 3.289062 7.328125 7.328125v40.671875c0 13.230469 10.769531 24 24 24 13.234375 0 24-10.769531 24-24v-48c0-4.40625 3.59375-8 8-8 4.410156 0 8 3.59375 8 8v16c0 13.230469 10.769531 24 24 24 11.464844 0 21.058594-8.097656 23.417969-18.863281l6.222656 9.640625-104.429688 81.222656zm266.222656 0h-112.679688l112.679688-87.648438zm0 0"/></svg>