<?xml version="1.0"?>
<svg xmlns="http://www.w3.org/2000/svg" viewBox="0 0 512 512" width="512" height="512"><g id="Spa_Bathrobe" data-name="Spa Bathrobe"><g id="Outline"><path d="M102.71,93.97a8,8,0,1,0,2.26-15.67,8.059,8.059,0,0,0-7.68,5.74,8.01,8.01,0,0,0,5.42,9.93Z"/><path d="M88.9,116.28v.01a71.97,71.97,0,0,0,21.83,60.4L236.667,303.928l-3.027,4.8a8.019,8.019,0,0,0,2.5,11.041,8.015,8.015,0,0,0,11.04-2.5l3.65-5.791a7.959,7.959,0,0,0,5.136-8.148l28.424-45.088c.044-.065.083-.132.125-.2L351.48,151.819a39.921,39.921,0,0,0,4.96-31.019L343.28,68.149a89.844,89.844,0,0,0-31.92-49.1c-1.34-1.04-2.73-2.071-4.15-3.05h28.91a56.284,56.284,0,0,1,53.71,40.2l18.05,61.38a55.971,55.971,0,0,1-7.12,46.859L365.06,218a8,8,0,1,0,13.31,8.87l35.71-53.551a72.1,72.1,0,0,0,9.16-60.259L405.19,51.68A72,72,0,0,0,336.11,0H175.89a72,72,0,0,0-69.08,51.68l-.48,1.66a8.008,8.008,0,0,0,7.68,10.26,8.046,8.046,0,0,0,7.67-5.741l.49-1.659A56.287,56.287,0,0,1,175.89,16h28.9a89.925,89.925,0,0,0-36.07,52.149l-12.09,48.33a40.064,40.064,0,0,0,10.52,37.991L267.579,254.9l-22.148,35.127L121.96,165.3l-.16-.16a56.236,56.236,0,0,1-17.38-40.56,55.536,55.536,0,0,1,.37-6.45,8.009,8.009,0,0,0-7.02-8.87c-.31-.031-.63-.05-.94-.05A7.99,7.99,0,0,0,88.9,116.28Zm89.57,26.869a23.846,23.846,0,0,1-7.03-16.969,24.165,24.165,0,0,1,.71-5.821L184.24,72.03a73.97,73.97,0,0,1,143.52,0l13.16,52.65a23.972,23.972,0,0,1-2.97,18.61l-61.616,97.724Z"/><path d="M24,321a8,8,0,0,0,8-8V104A56.063,56.063,0,0,1,88,48a8,8,0,0,0,0-16,72.081,72.081,0,0,0-72,72V313A8,8,0,0,0,24,321Z"/><path d="M424,48a56.063,56.063,0,0,1,56,56V368a8,8,0,0,0,16,0V104a72.081,72.081,0,0,0-72-72,8,8,0,0,0,0,16Z"/><path d="M264,496H198.948l23.708-35.562a8,8,0,1,0-13.312-8.875L179.719,496H134.5l22.527-35.733a8,8,0,1,0-13.535-8.534L115.586,496H88a55.981,55.981,0,0,1-54.243-42A8,8,0,1,0,18.263,458,71.976,71.976,0,0,0,88,512H264a8,8,0,0,0,0-16Z"/><path d="M232,432a8,8,0,0,0,0-16H24a8.009,8.009,0,0,1-8-8V392H136a8,8,0,0,0,0-16H16V361a8.009,8.009,0,0,1,8-8H296a8,8,0,0,0,0-16H24A24.027,24.027,0,0,0,0,361v47a24.027,24.027,0,0,0,24,24Z"/><path d="M507.441,397.818a159.782,159.782,0,0,0-39.863-4.891,158.294,158.294,0,0,0-12.872-37.575,8,8,0,0,0-8.763-4.141,158.13,158.13,0,0,0-31.558,11.12,157.385,157.385,0,0,0-24.762-24.7,8,8,0,0,0-9.69,0,157.718,157.718,0,0,0-25.578,25.721,158.88,158.88,0,0,0-33.679-12.144,8,8,0,0,0-8.762,4.141,158.34,158.34,0,0,0-12.873,37.576,160.023,160.023,0,0,0-39.862,4.89,8,8,0,0,0-5.845,7.73c.009,2.512.624,61.823,37.649,89.815,17.356,13.121,39.043,16.7,57.555,16.7a162.891,162.891,0,0,0,34.772-3.9,162.86,162.86,0,0,0,34.773,3.9c18.51,0,40.2-3.583,57.553-16.7,37.025-27.992,37.641-87.3,37.649-89.815A8,8,0,0,0,507.441,397.818Zm-64.3-29.339a146.344,146.344,0,0,1,9.8,33.421c.027.274.066.542.119.807,2.091,13.855,1.838,29.3-4.565,42.843-6.361,13.454-18.157,23.437-30.138,30.607,10.66-14.544,20.2-33.4,20.2-54.325,0-17.235-6.474-33.068-14.714-46.244A153.479,153.479,0,0,1,443.145,368.479ZM300.633,482.6c-24.351-18.41-29.763-55.882-30.96-70.787a150.156,150.156,0,0,1,27.065-2.877c-1.116,14.168.283,29.418,6.917,43.452,10.1,21.361,30.013,35.134,47.553,43.6C334.86,496.331,315.376,493.747,300.633,482.6Zm17.487-37.05c-13.046-27.6-.477-63.312,5.369-77.074a151.769,151.769,0,0,1,21.569,8.162C337.13,389.6,331,405.053,331,421.832c0,22.376,10.909,42.39,22.433,57.292C339.729,471.824,325.413,460.978,318.12,445.55Zm66.658,43.658C373.6,479.252,347,452.347,347,421.832s26.623-57.438,37.791-67.385a149.414,149.414,0,0,1,20.565,22.4,8.025,8.025,0,0,0,.518.707c8.912,12.27,16.692,27.716,16.692,44.277C422.561,452.349,395.951,479.257,384.778,489.208Zm81.209-6.608c-14.756,11.156-34.258,13.735-50.613,13.387,17.649-8.507,37.513-22.281,47.59-43.6,6.635-14.034,8.033-29.283,6.918-43.451a151.224,151.224,0,0,1,27.064,2.883C495.747,426.737,490.332,464.194,465.987,482.6Z"/><path d="M353.97,241.06a8.008,8.008,0,1,0,4.43,1.35A7.995,7.995,0,0,0,353.97,241.06Z"/><path d="M340.65,269.03a8,8,0,0,0-11.09,2.22l-24.88,37.31A8,8,0,0,0,318,317.439l24.87-37.319a7.992,7.992,0,0,0-2.22-11.09Z"/><circle cx="168" cy="384" r="8"/><circle cx="200" cy="384" r="8"/><circle cx="232" cy="384" r="8"/></g></g></svg>
